<svg width="24" height="24" viewBox="0 0 24 24" fill="none" xmlns="http://www.w3.org/2000/svg">
<circle cx="12" cy="12" r="12" fill="#051923"/>
<path d="M11.6051 14.1364H12.7983V14.0767C12.8182 12.8438 13.1364 12.3068 14.0114 11.7599C14.8864 11.228 15.4034 10.4624 15.4034 9.36364C15.4034 7.8125 14.2699 6.67898 12.5199 6.67898C10.9091 6.67898 9.63139 7.6733 9.55682 9.36364H10.8097C10.8842 8.19034 11.7045 7.71307 12.5199 7.71307C13.4545 7.71307 14.2102 8.32955 14.2102 9.30398C14.2102 10.0945 13.7578 10.6612 13.1761 11.0142C12.2017 11.6058 11.62 12.1825 11.6051 14.0767V14.1364ZM12.2415 17.0795C12.7337 17.0795 13.1364 16.6768 13.1364 16.1847C13.1364 15.6925 12.7337 15.2898 12.2415 15.2898C11.7493 15.2898 11.3466 15.6925 11.3466 16.1847C11.3466 16.6768 11.7493 17.0795 12.2415 17.0795Z" fill="white"/>
</svg>
