<svg width="14" height="14" viewBox="0 0 14 14" fill="none" xmlns="http://www.w3.org/2000/svg">
<path d="M10.3569 0L3.31421 6.58242L3.09498 6.80393L3.2046 7.11376C3.2046 7.11376 3.69788 8.53065 2.75209 9.54893V9.56404L2.7385 9.57821L2.6701 9.667L2.61529 9.72604L0.875 11.5562L3.23178 12.25L4.13635 11.2756L4.23193 11.1873L4.24553 11.1727H4.25956C5.2049 10.1539 6.52031 10.6853 6.52031 10.6853L6.80795 10.8033L7.01359 10.5672L13.125 2.98115L10.3569 0ZM10.3021 1.29882L11.9192 3.04018L8.08258 7.79292L5.89023 5.43143L10.3021 1.29882ZM5.23209 6.05061L7.50687 8.5009L6.65712 9.56357L4.24553 6.96593L5.23209 6.05061ZM4.19116 8.23547L5.47894 9.62308C4.93436 9.6448 4.2749 9.82947 3.65666 10.4789C3.64789 10.4883 3.63781 10.4845 3.62904 10.4935L3.51942 10.597L3.28659 10.3462L3.38262 10.2281L3.39621 10.1983C3.9991 9.5324 4.17055 8.82206 4.19116 8.23547Z" fill="black" fill-opacity="0.3"/>
<path d="M0 13.125H14V14H0V13.125Z" fill="black" fill-opacity="0.3"/>
</svg>
