<svg width="32" height="31" viewBox="0 0 32 31" fill="none" xmlns="http://www.w3.org/2000/svg">
<g filter="url(#filter0_d)">
<path d="M11 3.25252C12.1764 2.94971 13.4102 2.91791 14.607 3.16428C16.0728 3.46599 17.4246 4.1728 18.5088 5.2044C19.5929 6.23599 20.366 7.551 20.7401 9H22.0001C23.3262 9 24.598 9.52678 25.5356 10.4645C26.4733 11.4021 27.0001 12.6739 27.0001 14C27.0001 15.3261 26.4733 16.5979 25.5356 17.5355C24.9748 18.0964 24.2944 18.5102 23.5544 18.7523M8 4.75032C7.50611 5.14499 7.05842 5.59866 6.66776 6.10338C5.75177 7.28683 5.1861 8.70348 5.03502 10.1924C4.88393 11.6812 5.1535 13.1826 5.81309 14.526C6.47267 15.8693 7.49583 17.0007 8.76629 17.7916C10.0368 18.5824 11.5036 19.0011 13.0001 19H19.5" stroke="black" stroke-linecap="round" stroke-linejoin="round"/>
<path d="M7 1L24.5 22.5" stroke="black" stroke-linecap="round"/>
</g>
<defs>
<filter id="filter0_d" x="0" y="0" width="32" height="31" filterUnits="userSpaceOnUse" color-interpolation-filters="sRGB">
<feFlood flood-opacity="0" result="BackgroundImageFix"/>
<feColorMatrix in="SourceAlpha" type="matrix" values="0 0 0 0 0 0 0 0 0 0 0 0 0 0 0 0 0 0 127 0"/>
<feOffset dy="4"/>
<feGaussianBlur stdDeviation="2"/>
<feColorMatrix type="matrix" values="0 0 0 0 0 0 0 0 0 0 0 0 0 0 0 0 0 0 0.25 0"/>
<feBlend mode="normal" in2="BackgroundImageFix" result="effect1_dropShadow"/>
<feBlend mode="normal" in="SourceGraphic" in2="effect1_dropShadow" result="shape"/>
</filter>
</defs>
</svg>
