<svg width="15" height="22" viewBox="0 0 15 22" fill="none" xmlns="http://www.w3.org/2000/svg">
<path d="M5.20947 5.12889L2.66673 9.09601L0.124195 5.12922L2.36494 5.17631L2.36494 5.17634L2.36648 5.17631L5.20947 5.12889Z" fill="black" stroke="black" stroke-width="0.0818824"/>
<path fill-rule="evenodd" clip-rule="evenodd" d="M12.4726 7.82025C12.4885 10.6891 10.301 12.8619 7.78827 12.8771C5.94019 12.8882 4.25517 11.7302 3.48675 9.97541L1.22878 9.98905C2.10294 12.9125 4.71966 15.0263 7.80003 15.0077C11.5791 14.9848 14.625 11.7612 14.6032 7.80738C14.5814 3.85359 11.5001 0.666929 7.72101 0.68976C4.34976 0.710126 1.56201 3.27771 1.01503 6.63852L3.18661 6.6254C3.70336 4.39908 5.601 2.83323 7.73277 2.82035C10.2455 2.80517 12.4568 4.95142 12.4726 7.82025Z" fill="black"/>
<rect x="1.46492" y="10.2169" width="1.60631" height="11.499" fill="black" stroke="black" stroke-width="0.488439"/>
</svg>
