<svg width="14" height="14" viewBox="0 0 14 14" fill="none" xmlns="http://www.w3.org/2000/svg">
<path d="M8.13086 9.79774C8.10345 9.7706 8.06643 9.75538 8.02786 9.75538C7.98929 9.75538 7.95228 9.7706 7.92487 9.79774L5.80671 11.9161C4.82602 12.8969 3.17086 13.0008 2.08808 11.9161C1.00348 10.8314 1.10739 9.17792 2.08808 8.19714L4.20624 6.07881C4.26275 6.0223 4.26275 5.92933 4.20624 5.87281L3.48075 5.14726C3.45334 5.12012 3.41633 5.10489 3.37775 5.10489C3.33918 5.10489 3.30217 5.12012 3.27476 5.14726L1.1566 7.26559C-0.385534 8.80785 -0.385534 11.3035 1.1566 12.844C2.69874 14.3844 5.19423 14.3862 6.73455 12.844L8.85271 10.7257C8.90921 10.6691 8.90921 10.5762 8.85271 10.5197L8.13086 9.79774ZM12.8448 1.1567C11.3026 -0.385566 8.80714 -0.385566 7.26682 1.1567L5.14684 3.27503C5.1197 3.30244 5.10447 3.33946 5.10447 3.37803C5.10447 3.4166 5.1197 3.45362 5.14684 3.48103L5.87051 4.20476C5.92702 4.26128 6.01999 4.26128 6.0765 4.20476L8.19466 2.08643C9.17535 1.10565 10.8305 1.00174 11.9133 2.08643C12.9979 3.17112 12.894 4.82458 11.9133 5.80536L9.79512 7.92369C9.76798 7.9511 9.75276 7.98812 9.75276 8.02669C9.75276 8.06527 9.76798 8.10228 9.79512 8.12969L10.5206 8.85525C10.5771 8.91176 10.6701 8.91176 10.7266 8.85525L12.8448 6.73692C14.3851 5.19465 14.3851 2.69896 12.8448 1.1567ZM8.78891 4.45451C8.7615 4.42737 8.72449 4.41215 8.68592 4.41215C8.64734 4.41215 8.61033 4.42737 8.58292 4.45451L4.45415 8.5818C4.42701 8.60921 4.41179 8.64622 4.41179 8.6848C4.41179 8.72337 4.42701 8.76039 4.45415 8.7878L5.176 9.50971C5.23251 9.56622 5.32548 9.56622 5.38199 9.50971L9.50893 5.38242C9.56544 5.32591 9.56544 5.23294 9.50893 5.17642L8.78891 4.45451Z" fill="#2A75E6"/>
</svg>
