<svg width="16" height="16" viewBox="0 0 16 16" fill="none" xmlns="http://www.w3.org/2000/svg">
<path d="M4.1665 6.54297C4.1665 4.60997 5.73351 3.04297 7.6665 3.04297H8.33317C10.2662 3.04297 11.8332 4.60997 11.8332 6.54297V12.8763H4.1665V6.54297Z" stroke="black"/>
<path d="M2.58325 13.093C2.58325 12.6511 2.94142 12.293 3.38325 12.293H12.6166C13.0584 12.293 13.4166 12.6511 13.4166 13.093V13.3763H2.58325V13.093Z" fill="black"/>
<path fill-rule="evenodd" clip-rule="evenodd" d="M6.4165 13.375C6.4165 14.2495 7.12539 14.9583 7.99984 14.9583C8.87429 14.9583 9.58317 14.2495 9.58317 13.375H8.58317C8.58317 13.6972 8.322 13.9583 7.99984 13.9583C7.67767 13.9583 7.4165 13.6972 7.4165 13.375H6.4165Z" fill="black"/>
<path d="M8 2V2.54167" stroke="black" stroke-linecap="round"/>
</svg>
