<svg width="16" height="15" viewBox="0 0 16 15" fill="none" xmlns="http://www.w3.org/2000/svg">
<path d="M12.298 7.02282C12.8109 6.09781 13.0324 5.02409 12.9305 3.95702C12.7797 2.36708 11.941 0.961627 10.57 0L9.63951 1.48477C10.5818 2.14606 11.1553 3.08808 11.2547 4.13527C11.3005 4.62196 11.2432 5.11334 11.0871 5.57368C10.9309 6.03402 10.6798 6.45173 10.3519 6.79645L9.34814 7.85879L10.7107 8.28212C14.2745 9.38723 14.3157 13.1803 14.3157 13.2186H16C16 11.6242 15.1949 8.50849 12.298 7.02282Z" fill="white"/>
<path d="M6.3158 7.86878C8.17349 7.86878 9.68423 6.26993 9.68423 4.3039C9.68423 2.33786 8.17349 0.739014 6.3158 0.739014C4.45812 0.739014 2.94738 2.33786 2.94738 4.3039C2.94738 6.26993 4.45812 7.86878 6.3158 7.86878ZM6.3158 2.52146C7.24465 2.52146 8.00002 3.32088 8.00002 4.3039C8.00002 5.28691 7.24465 6.08634 6.3158 6.08634C5.38696 6.08634 4.63159 5.28691 4.63159 4.3039C4.63159 3.32088 5.38696 2.52146 6.3158 2.52146ZM7.57897 8.76H5.05264C2.26611 8.76 0 11.1583 0 14.1073V14.9985H1.68421V14.1073C1.68421 12.1413 3.19496 10.5424 5.05264 10.5424H7.57897C9.43666 10.5424 10.9474 12.1413 10.9474 14.1073V14.9985H12.6316V14.1073C12.6316 11.1583 10.3655 8.76 7.57897 8.76Z" fill="white"/>
</svg>
