<svg width="16" height="15" viewBox="0 0 16 15" fill="none" xmlns="http://www.w3.org/2000/svg">
<path d="M12.1671 6.95009L12.092 7.08559L12.2298 7.15629C14.97 8.56159 15.799 11.4677 15.8479 13.0686H14.4595C14.4388 12.7493 14.3516 11.9624 13.9883 11.0926C13.5202 9.97204 12.5904 8.70792 10.7554 8.13887C10.7554 8.13886 10.7554 8.13886 10.7553 8.13885L9.62266 7.78693L10.4609 6.89983C10.4609 6.89978 10.461 6.89973 10.461 6.89969C10.8041 6.53888 11.0664 6.10228 11.2294 5.62187C11.3924 5.14141 11.452 4.62881 11.4043 4.12121L11.4042 4.1211C11.3045 3.06974 10.7477 2.12461 9.8413 1.44565L10.6124 0.215262C11.8732 1.14934 12.6398 2.47736 12.7814 3.97118L12.7814 3.97129C12.8805 5.00862 12.6651 6.05196 12.1671 6.95009Z" fill="white" stroke="#051923" stroke-width="0.3"/>
<path d="M9.53424 4.30317C9.53424 6.19448 8.08275 7.71805 6.3158 7.71805C4.54886 7.71805 3.09738 6.19448 3.09738 4.30317C3.09738 2.41185 4.54886 0.888281 6.3158 0.888281C8.08275 0.888281 9.53424 2.41185 9.53424 4.30317ZM8.15002 4.30317C8.15002 3.24543 7.33539 2.37072 6.3158 2.37072C5.29622 2.37072 4.48159 3.24543 4.48159 4.30317C4.48159 5.3609 5.29622 6.23561 6.3158 6.23561C7.33539 6.23561 8.15002 5.3609 8.15002 4.30317ZM0.15 14.1066C0.15 11.2323 2.35685 8.90927 5.05264 8.90927H7.57897C10.2748 8.90927 12.4816 11.2323 12.4816 14.1066V14.8478H11.0974V14.1066C11.0974 12.0658 9.5274 10.3917 7.57897 10.3917H5.05264C3.10421 10.3917 1.53421 12.0658 1.53421 14.1066V14.8478H0.15V14.1066Z" fill="white" stroke="#051923" stroke-width="0.3"/>
</svg>
