<svg width="24" height="24" viewBox="0 0 24 24" fill="none" xmlns="http://www.w3.org/2000/svg">
<g clip-path="url(#clip0)">
<path d="M19.7495 0.300785H4.24928C3.69093 0.300094 3.13794 0.409558 2.62196 0.622908C2.10598 0.836258 1.63716 1.1493 1.24236 1.54411C0.847545 1.93892 0.534501 2.40774 0.32115 2.92372C0.1078 3.43969 -0.00166427 3.99269 -0.000973312 4.55103V19.449C-0.00166427 20.0074 0.1078 20.5604 0.32115 21.0764C0.534501 21.5923 0.847545 22.0611 1.24236 22.456C1.63716 22.8508 2.10598 23.1638 2.62196 23.3772C3.13794 23.5905 3.69093 23.7 4.24928 23.6993H19.7495C20.3079 23.7 20.8609 23.5905 21.3768 23.3772C21.8928 23.1638 22.3616 22.8508 22.7564 22.456C23.1513 22.0611 23.4643 21.5923 23.6777 21.0764C23.891 20.5604 24.0005 20.0074 23.9998 19.449V4.55103C24.0005 3.99269 23.891 3.43969 23.6777 2.92372C23.4643 2.40774 23.1513 1.93892 22.7564 1.54411C22.3616 1.1493 21.8928 0.836258 21.3768 0.622908C20.8609 0.409558 20.3079 0.300094 19.7495 0.300785ZM22.988 19.059C22.9908 19.5359 22.8993 20.0086 22.7188 20.45C22.5382 20.8913 22.2723 21.2927 21.9361 21.6309C21.6 21.9692 21.2003 22.2376 20.76 22.4209C20.3198 22.6042 19.8476 22.6986 19.3708 22.6988H4.62878C3.66667 22.6974 2.74436 22.3146 2.06404 21.6343C1.38373 20.954 1.00092 20.0316 0.999527 19.0695V4.92978C1.00092 3.96767 1.38373 3.04537 2.06404 2.36505C2.74436 1.68474 3.66667 1.30192 4.62878 1.30053H19.3588C20.3213 1.30073 21.2443 1.68316 21.9248 2.36374C22.6054 3.04431 22.9878 3.96731 22.988 4.92978V19.059ZM9.48803 11.25L12.2893 16.629C12.3403 16.7108 12.3095 16.7888 12.23 16.7888H10.4878C10.379 16.7888 10.328 16.7618 10.2808 16.6598C9.64103 15.3398 8.98778 14.0198 8.31953 12.6015H8.30078C7.68585 13.9672 7.05154 15.3241 6.39803 16.6718C6.35228 16.7498 6.30128 16.7805 6.21878 16.7805H4.56953C4.46828 16.7805 4.46078 16.6988 4.51178 16.6403L7.25003 11.421L4.60178 6.14028C4.53878 6.05853 4.60178 5.99928 4.65953 5.99928H6.37853C6.47978 5.99928 6.51953 6.01953 6.55853 6.10803C7.19673 7.43849 7.82052 8.77582 8.42978 10.1198H8.44853C9.03053 8.79978 9.67178 7.42878 10.2883 6.12003C10.3393 6.03828 10.37 5.98728 10.4683 5.98728H12.077C12.1588 5.98728 12.1903 6.05028 12.14 6.12828L9.48803 11.25ZM12.7805 12.879C12.7805 10.551 14.3278 8.73003 16.7885 8.73003C16.9993 8.73003 17.1088 8.73003 17.3083 8.75028V6.10203C17.3083 6.03903 17.3585 6.00003 17.4095 6.00003H18.9875C19.0693 6.00003 19.0895 6.03078 19.0895 6.07803V15.2618C19.0895 15.531 19.0895 15.8708 19.1405 16.2375C19.1405 16.3005 19.1203 16.3193 19.0588 16.3515C18.2591 16.7315 17.3851 16.929 16.4998 16.9298C14.3278 16.941 12.7805 15.6015 12.7805 12.879ZM17.309 10.32C17.1243 10.2494 16.9277 10.2151 16.73 10.2188C15.4693 10.2188 14.5903 11.1908 14.5903 12.801C14.5903 14.6408 15.488 15.3788 16.6213 15.3788C16.859 15.3788 17.1215 15.3518 17.309 15.27V10.32Z" fill="#00A6ED"/>
</g>
<defs>
<clipPath id="clip0">
<rect width="24" height="24" fill="white"/>
</clipPath>
</defs>
</svg>
