<svg width="24" height="24" viewBox="0 0 24 24" fill="none" xmlns="http://www.w3.org/2000/svg">
<g clip-path="url(#clip0)">
<path d="M19.75 0.300723H4.24976C3.69142 0.300033 3.13842 0.409497 2.62245 0.622847C2.10647 0.836197 1.63765 1.14924 1.24284 1.54405C0.848034 1.93886 0.534989 2.40768 0.321639 2.92366C0.108288 3.43963 -0.00117599 3.99263 -0.00048503 4.55097V19.449C-0.00117599 20.0073 0.108288 20.5603 0.321639 21.0763C0.534989 21.5923 0.848034 22.0611 1.24284 22.4559C1.63765 22.8507 2.10647 23.1637 2.62245 23.3771C3.13842 23.5904 3.69142 23.6999 4.24976 23.6992H19.75C20.3084 23.6999 20.8614 23.5904 21.3773 23.3771C21.8933 23.1637 22.3621 22.8507 22.7569 22.4559C23.1517 22.0611 23.4648 21.5923 23.6781 21.0763C23.8915 20.5603 24.001 20.0073 24.0003 19.449V4.55097C24.001 3.99263 23.8915 3.43963 23.6781 2.92366C23.4648 2.40768 23.1517 1.93886 22.7569 1.54405C22.3621 1.14924 21.8933 0.836197 21.3773 0.622847C20.8614 0.409497 20.3084 0.300033 19.75 0.300723ZM22.9885 19.059C22.9913 19.5358 22.8998 20.0085 22.7192 20.4499C22.5387 20.8913 22.2727 21.2926 21.9366 21.6309C21.6004 21.9691 21.2008 22.2376 20.7605 22.4208C20.3203 22.6041 19.8481 22.6985 19.3713 22.6987H4.62926C3.66715 22.6973 2.74485 22.3145 2.06453 21.6342C1.38422 20.9539 1.0014 20.0316 1.00001 19.0695V4.92972C1.0014 3.96761 1.38422 3.04531 2.06453 2.36499C2.74485 1.68467 3.66715 1.30186 4.62926 1.30047H19.3593C20.3217 1.30067 21.2447 1.6831 21.9253 2.36368C22.6059 3.04425 22.9883 3.96725 22.9885 4.92972V19.059Z" fill="#00A6ED"/>
<path fill-rule="evenodd" clip-rule="evenodd" d="M16.116 9.63393C16.5574 9.32183 16.91 8.88244 17.1336 8.36486C17.403 7.74102 17.4702 7.03772 17.3253 6.3682C17.1803 5.69861 16.8308 5.09881 16.3299 4.6678C15.8288 4.23648 15.2055 3.99987 14.5612 4L9.83899 4C9.19459 3.99984 8.57128 4.23643 8.07007 4.66775C7.56919 5.09877 7.21965 5.69859 7.07467 6.36821C6.9297 7.03776 6.99697 7.74109 7.26642 8.36494C7.48997 8.88253 7.84265 9.32191 8.28406 9.634C7.93511 9.88065 7.64049 10.2077 7.42153 10.5919C7.14562 11.076 7.00012 11.6329 7.00012 12.2001C7.00012 12.7672 7.14562 13.3241 7.42153 13.8082C7.64052 14.1925 7.93518 14.5195 8.28418 14.7662C7.95365 15.0001 7.67171 15.3062 7.4567 15.6651C7.1827 16.1224 7.02677 16.6497 7.00384 17.1925C6.9809 17.7353 7.09171 18.2755 7.3257 18.7576C7.55972 19.2398 7.90904 19.6474 8.33931 19.9368C8.76975 20.2263 9.26507 20.3865 9.774 20.3992C10.2829 20.4118 10.7847 20.2764 11.2273 20.0084C11.6696 19.7405 12.036 19.3504 12.2903 18.8801C12.5444 18.4098 12.6779 17.8755 12.6778 17.3322V14.4935C12.8622 14.6705 13.068 14.8215 13.2905 14.942C13.6731 15.1492 14.0947 15.2605 14.5239 15.2668C14.953 15.2731 15.3773 15.1741 15.7651 14.9781C16.1527 14.7821 16.4932 14.4945 16.7621 14.1378C17.031 13.7812 17.2217 13.3644 17.3211 12.9187C17.4204 12.473 17.426 12.0089 17.3376 11.5606C17.2492 11.1123 17.0687 10.6903 16.8087 10.3263C16.6151 10.0552 16.3809 9.82121 16.116 9.63393ZM9.82752 10.1359C9.33727 10.1389 8.86407 10.3519 8.51189 10.7349C8.15676 11.1211 7.95478 11.6481 7.95494 12.2007C7.9551 12.7533 8.15739 13.2801 8.51274 13.6661C8.86757 14.0515 9.345 14.2644 9.83887 14.2642L11.7223 14.2641V10.1359L9.82752 10.1359ZM9.83716 15.268C9.59099 15.2658 9.34642 15.3166 9.11738 15.4179C8.88829 15.5192 8.67879 15.6694 8.50144 15.8606C8.32405 16.0518 8.18245 16.2802 8.08556 16.5329C7.98866 16.7857 7.93859 17.0574 7.93859 17.3321C7.93859 17.6068 7.98866 17.8784 8.08556 18.1312C8.18245 18.384 8.32405 18.6124 8.50144 18.8036C8.67879 18.9948 8.88829 19.1449 9.11738 19.2463C9.34642 19.3476 9.59099 19.3984 9.83716 19.3962L9.83869 19.3962C9.87141 19.3961 9.90406 19.3952 9.93661 19.3933C10.3952 19.3666 10.8331 19.1568 11.1642 18.7969C11.5193 18.411 11.7216 17.8845 11.7223 17.3322V17.1342V15.6835V15.268L9.83716 15.268ZM14.5618 14.2641C14.0699 14.2613 13.5953 14.0472 13.2428 13.6623C12.8897 13.2768 12.6888 12.7518 12.6884 12.2013C12.6881 11.6508 12.8884 11.1255 13.2411 10.7395C13.5931 10.3542 14.0674 10.1394 14.5592 10.1358H14.5625C15.0564 10.136 15.5337 10.3493 15.8883 10.7349C16.2434 11.1211 16.4454 11.6481 16.4452 12.2007C16.445 12.7533 16.2427 13.2802 15.8874 13.6661C15.5327 14.0513 15.0555 14.2641 14.5618 14.2641ZM15.8869 8.53234C15.7281 8.70501 15.5448 8.84316 15.3464 8.94316C15.1035 9.06552 14.8382 9.13074 14.5676 9.13212L14.5638 9.13191L14.5557 9.13213L12.6778 9.13207V6.548V5.00378H14.561C15.0547 5.00441 15.5318 5.21771 15.8864 5.60311C16.2415 5.98905 16.4439 6.5156 16.4445 7.06796C16.4439 7.62009 16.2417 8.14644 15.8869 8.53234ZM8.51366 5.60304C8.15856 5.98897 7.95623 6.51552 7.9556 7.06788C7.95625 7.62 8.15841 8.14641 8.51326 8.53229C8.86765 8.91767 9.34445 9.13111 9.838 9.13206H11.7223V5.69034V5.00371H10.9573H9.83909C9.34536 5.00434 8.86829 5.21763 8.51366 5.60304ZM12.4778 10.4429C12.5401 10.3558 12.6069 10.2728 12.6778 10.1942C12.6956 10.1745 12.7136 10.155 12.7319 10.1359C12.7994 10.0653 12.8702 9.99852 12.9443 9.93591L12.4778 9.93584V10.4429Z" fill="#00A6ED"/>
</g>
<defs>
<clipPath id="clip0">
<rect width="24" height="24" fill="white"/>
</clipPath>
</defs>
</svg>
