<svg width="24" height="24" viewBox="0 0 24 24" fill="none" xmlns="http://www.w3.org/2000/svg">
<g clip-path="url(#clip0)">
<path d="M8.26421 9.43401C7.78131 9.1305 7.39519 8.67394 7.15822 8.12529C6.89714 7.5208 6.83181 6.83875 6.97241 6.18937C7.11301 5.53996 7.45171 4.95969 7.93529 4.54355C8.41905 4.12726 9.01935 3.89984 9.63894 3.9C9.63895 3.9 9.63896 3.9 9.63897 3.9M8.26421 9.43401L9.63894 4L9.63897 3.9M8.26421 9.43401C7.87405 9.67915 7.54562 10.0251 7.30842 10.4414C7.0413 10.9101 6.90012 11.4499 6.90012 12.0001C6.90012 12.5502 7.0413 13.09 7.30842 13.5587C7.54563 13.975 7.87409 14.321 8.26428 14.5661C7.89259 14.8 7.57674 15.1255 7.34249 15.5165C7.07725 15.9592 6.926 16.4702 6.90375 16.9967C6.8815 17.5232 6.98903 18.047 7.21566 18.514C7.44231 18.981 7.78015 19.3748 8.19512 19.6538C8.61018 19.933 9.08708 20.087 9.57649 20.0992C10.0659 20.1114 10.5489 19.9812 10.9755 19.7229C11.4019 19.4646 11.7561 19.0879 12.0023 18.6325C12.2484 18.1772 12.3779 17.6592 12.3778 17.1321V14.0444C12.596 14.2931 12.853 14.4997 13.1382 14.6541C13.5068 14.8537 13.9126 14.9608 14.3253 14.9668C14.7381 14.9728 15.1464 14.8777 15.5199 14.6888C15.8934 14.5 16.2222 14.2225 16.4823 13.8776C16.7423 13.5327 16.9271 13.1291 17.0235 12.697C17.1198 12.2648 17.1253 11.8147 17.0395 11.38C16.9537 10.9452 16.7788 10.5366 16.5273 10.1844C16.3107 9.88105 16.0418 9.62623 15.7359 9.43394C16.2187 9.13042 16.6048 8.67385 16.8418 8.12521C17.1028 7.52073 17.1681 6.83871 17.0276 6.18936C16.887 5.53998 16.5483 4.95973 16.0647 4.54359C15.581 4.12731 14.9807 3.89987 14.3612 3.9C14.3612 3.9 14.3611 3.9 14.3611 3.9H9.63897M14.3666 9.03212L14.3666 9.03187L14.3584 9.0321L14.3571 9.03214L12.3778 9.03206V4.70378H14.3611C14.8842 4.70445 15.3874 4.93048 15.76 5.3354C16.1329 5.74061 16.3439 6.29163 16.3445 6.86796C16.3439 7.44404 16.1331 7.99486 15.7605 8.40003C15.3892 8.80385 14.8879 9.02991 14.3666 9.03212ZM11.0378 18.6647C10.6736 19.0604 10.1847 19.2852 9.67446 19.2959L9.63805 19.2962C9.37746 19.2985 9.11881 19.2447 8.87693 19.1377C8.63502 19.0307 8.41443 18.8724 8.22813 18.6716C8.0418 18.4708 7.89351 18.2314 7.79218 17.967C7.69085 17.7027 7.63859 17.4189 7.63859 17.1321C7.63859 16.8453 7.69085 16.5615 7.79218 16.2971C7.89351 16.0328 8.0418 15.7934 8.22813 15.5925C8.41443 15.3917 8.63502 15.2335 8.87693 15.1264C9.11881 15.0194 9.37746 14.9657 9.63805 14.968H9.63894H11.6223V17.132C11.6217 17.7084 11.4106 18.2594 11.0378 18.6647ZM9.63894 9.83592H11.6223V14.1641L9.63893 14.1642H9.6389C9.1157 14.1644 8.612 13.9387 8.23917 13.5338C7.86609 13.1286 7.65511 12.5772 7.65494 12.0007C7.65478 11.4242 7.86543 10.8727 8.23828 10.4672C8.60983 10.0631 9.11162 9.83729 9.63323 9.83585L9.63323 9.83592H9.63894ZM14.3709 14.1642L14.3617 14.1641C13.8405 14.1612 13.3396 13.9343 12.9691 13.5299C12.5983 13.1252 12.3888 12.5758 12.3884 12.0014C12.3881 11.427 12.597 10.8773 12.9673 10.4721C13.3372 10.0672 13.8377 9.83955 14.3588 9.83584H14.3625C14.3625 9.83584 14.3625 9.83584 14.3625 9.83584C14.8857 9.83604 15.3893 10.062 15.7619 10.4672C16.1347 10.8727 16.3454 11.4242 16.3452 12.0007C16.345 12.5773 16.134 13.1286 15.7609 13.5338C15.3904 13.9362 14.8906 14.1616 14.3709 14.1642Z" fill="#00A6ED" stroke="#00A6ED" stroke-width="0.2"/>
<path d="M19.75 0.300785H4.24976C3.69142 0.300094 3.13842 0.409558 2.62245 0.622908C2.10647 0.836258 1.63765 1.1493 1.24284 1.54411C0.848034 1.93892 0.534989 2.40774 0.321639 2.92372C0.108288 3.43969 -0.00117599 3.99269 -0.00048503 4.55103V19.449C-0.00117599 20.0074 0.108288 20.5604 0.321639 21.0764C0.534989 21.5923 0.848034 22.0611 1.24284 22.456C1.63765 22.8508 2.10647 23.1638 2.62245 23.3772C3.13842 23.5905 3.69142 23.7 4.24976 23.6993H19.75C20.3084 23.7 20.8614 23.5905 21.3773 23.3772C21.8933 23.1638 22.3621 22.8508 22.7569 22.456C23.1517 22.0611 23.4648 21.5923 23.6781 21.0764C23.8915 20.5604 24.001 20.0074 24.0003 19.449V4.55103C24.001 3.99269 23.8915 3.43969 23.6781 2.92372C23.4648 2.40774 23.1517 1.93892 22.7569 1.54411C22.3621 1.1493 21.8933 0.836258 21.3773 0.622908C20.8614 0.409558 20.3084 0.300094 19.75 0.300785ZM22.9885 19.059C22.9913 19.5359 22.8998 20.0086 22.7192 20.45C22.5387 20.8913 22.2727 21.2927 21.9366 21.6309C21.6004 21.9692 21.2008 22.2376 20.7605 22.4209C20.3203 22.6042 19.8481 22.6986 19.3713 22.6988H4.62926C3.66715 22.6974 2.74485 22.3146 2.06453 21.6343C1.38422 20.954 1.0014 20.0316 1.00001 19.0695V4.92978C1.0014 3.96767 1.38422 3.04537 2.06453 2.36505C2.74485 1.68474 3.66715 1.30192 4.62926 1.30053H19.3593C20.3217 1.30073 21.2447 1.68316 21.9253 2.36374C22.6059 3.04431 22.9883 3.96731 22.9885 4.92978V19.059Z" fill="#00A6ED"/>
</g>
<defs>
<clipPath id="clip0">
<rect width="24" height="24" fill="white"/>
</clipPath>
</defs>
</svg>
