<svg width="24" height="24" viewBox="0 0 24 24" fill="none" xmlns="http://www.w3.org/2000/svg">
<mask id="path-2-outside-1" maskUnits="userSpaceOnUse" x="2" y="4" width="20" height="17" fill="black">
<rect fill="white" x="2" y="4" width="20" height="17"/>
<path d="M20.9656 10.4527C20.9693 10.4454 20.9735 10.4385 20.9766 10.4309C20.9818 10.4175 20.986 10.4037 20.9893 10.3897C20.9906 10.3845 20.9928 10.3796 20.9938 10.3743C20.9976 10.3547 20.9996 10.3349 20.9998 10.3149C20.9998 10.3141 21 10.3134 21 10.3126C21 10.3073 20.9987 10.3024 20.9984 10.2973C20.998 10.2832 20.9966 10.2692 20.9943 10.2554C20.9927 10.247 20.9902 10.2392 20.9881 10.2312C20.9853 10.2202 20.982 10.2094 20.978 10.1988C20.9747 10.1902 20.9706 10.1823 20.9666 10.1741C20.9621 10.1646 20.9571 10.1554 20.9517 10.1465C20.9464 10.1383 20.9408 10.1304 20.9347 10.1228C20.9307 10.1176 20.9276 10.1119 20.9232 10.1067L16.5784 5.10672C16.5492 5.0732 16.5133 5.04634 16.4731 5.02793C16.4328 5.00953 16.3891 5 16.3448 5H7.65517C7.61094 5 7.56722 5.00953 7.52695 5.02793C7.48667 5.04634 7.45076 5.0732 7.42164 5.10672L3.07681 10.1067C3.07239 10.1118 3.06928 10.1175 3.06525 10.1228C3.05925 10.1304 3.0536 10.1383 3.04834 10.1465C3.04291 10.1554 3.03794 10.1646 3.03344 10.1741C3.02941 10.1823 3.02529 10.1902 3.02196 10.1988C3.01803 10.2094 3.01469 10.2202 3.01195 10.2311C3.00978 10.2392 3.00729 10.247 3.00574 10.2553C3.00342 10.2692 3.00202 10.2832 3.00155 10.2972C3.00132 10.3023 3 10.3073 3 10.3125L3.00023 10.3148C3.00035 10.3348 3.00235 10.3547 3.00621 10.3743C3.00722 10.3796 3.00931 10.3845 3.01071 10.3897C3.01396 10.4037 3.01819 10.4175 3.02335 10.4309C3.02646 10.4385 3.03072 10.4454 3.03445 10.4527C3.0393 10.4631 3.04474 10.4733 3.05074 10.4831C3.05586 10.4909 3.06191 10.4977 3.06766 10.5051C3.07301 10.512 3.07751 10.5193 3.08348 10.5257L11.7731 19.9007C11.7752 19.9029 11.7776 19.9044 11.7797 19.9065C11.7907 19.9177 11.8025 19.9281 11.815 19.9375C11.818 19.9397 11.8207 19.9423 11.8238 19.9444C11.8392 19.955 11.8555 19.9643 11.8725 19.972C11.8767 19.9739 11.8811 19.9753 11.8853 19.977C11.899 19.9826 11.9131 19.9871 11.9275 19.9906C11.9327 19.9918 11.9377 19.9931 11.943 19.9941C11.9806 20.002 12.0194 20.002 12.057 19.9941C12.0623 19.9931 12.0673 19.9917 12.0725 19.9906C12.0869 19.9871 12.101 19.9826 12.1147 19.977C12.1189 19.9753 12.1232 19.9739 12.1275 19.972C12.1445 19.9643 12.1608 19.955 12.1762 19.9444C12.1793 19.9423 12.182 19.9397 12.185 19.9375C12.1975 19.9281 12.2093 19.9177 12.2203 19.9065C12.2224 19.9044 12.2249 19.9029 12.2269 19.9008L20.9165 10.5258C20.9225 10.5193 20.927 10.512 20.9323 10.5051C20.9381 10.4978 20.9441 10.4909 20.9493 10.4831C20.9553 10.4733 20.9607 10.4631 20.9656 10.4527ZM7.9829 10.625L11.0718 18.2281L4.02453 10.625H7.9829ZM15.3465 10.625L12 18.8622L8.65347 10.625H15.3465ZM8.82044 10L12 5.82594L15.1796 10H8.82044ZM16.0171 10.625H19.9756L12.9282 18.2281L16.0171 10.625ZM20.0058 10H15.9619L12.6291 5.625H16.204L20.0058 10ZM7.79591 5.625H11.3708L8.03806 10H3.99427L7.79591 5.625Z"/>
</mask>
<path d="M20.9656 10.4527C20.9693 10.4454 20.9735 10.4385 20.9766 10.4309C20.9818 10.4175 20.986 10.4037 20.9893 10.3897C20.9906 10.3845 20.9928 10.3796 20.9938 10.3743C20.9976 10.3547 20.9996 10.3349 20.9998 10.3149C20.9998 10.3141 21 10.3134 21 10.3126C21 10.3073 20.9987 10.3024 20.9984 10.2973C20.998 10.2832 20.9966 10.2692 20.9943 10.2554C20.9927 10.247 20.9902 10.2392 20.9881 10.2312C20.9853 10.2202 20.982 10.2094 20.978 10.1988C20.9747 10.1902 20.9706 10.1823 20.9666 10.1741C20.9621 10.1646 20.9571 10.1554 20.9517 10.1465C20.9464 10.1383 20.9408 10.1304 20.9347 10.1228C20.9307 10.1176 20.9276 10.1119 20.9232 10.1067L16.5784 5.10672C16.5492 5.0732 16.5133 5.04634 16.4731 5.02793C16.4328 5.00953 16.3891 5 16.3448 5H7.65517C7.61094 5 7.56722 5.00953 7.52695 5.02793C7.48667 5.04634 7.45076 5.0732 7.42164 5.10672L3.07681 10.1067C3.07239 10.1118 3.06928 10.1175 3.06525 10.1228C3.05925 10.1304 3.0536 10.1383 3.04834 10.1465C3.04291 10.1554 3.03794 10.1646 3.03344 10.1741C3.02941 10.1823 3.02529 10.1902 3.02196 10.1988C3.01803 10.2094 3.01469 10.2202 3.01195 10.2311C3.00978 10.2392 3.00729 10.247 3.00574 10.2553C3.00342 10.2692 3.00202 10.2832 3.00155 10.2972C3.00132 10.3023 3 10.3073 3 10.3125L3.00023 10.3148C3.00035 10.3348 3.00235 10.3547 3.00621 10.3743C3.00722 10.3796 3.00931 10.3845 3.01071 10.3897C3.01396 10.4037 3.01819 10.4175 3.02335 10.4309C3.02646 10.4385 3.03072 10.4454 3.03445 10.4527C3.0393 10.4631 3.04474 10.4733 3.05074 10.4831C3.05586 10.4909 3.06191 10.4977 3.06766 10.5051C3.07301 10.512 3.07751 10.5193 3.08348 10.5257L11.7731 19.9007C11.7752 19.9029 11.7776 19.9044 11.7797 19.9065C11.7907 19.9177 11.8025 19.9281 11.815 19.9375C11.818 19.9397 11.8207 19.9423 11.8238 19.9444C11.8392 19.955 11.8555 19.9643 11.8725 19.972C11.8767 19.9739 11.8811 19.9753 11.8853 19.977C11.899 19.9826 11.9131 19.9871 11.9275 19.9906C11.9327 19.9918 11.9377 19.9931 11.943 19.9941C11.9806 20.002 12.0194 20.002 12.057 19.9941C12.0623 19.9931 12.0673 19.9917 12.0725 19.9906C12.0869 19.9871 12.101 19.9826 12.1147 19.977C12.1189 19.9753 12.1232 19.9739 12.1275 19.972C12.1445 19.9643 12.1608 19.955 12.1762 19.9444C12.1793 19.9423 12.182 19.9397 12.185 19.9375C12.1975 19.9281 12.2093 19.9177 12.2203 19.9065C12.2224 19.9044 12.2249 19.9029 12.2269 19.9008L20.9165 10.5258C20.9225 10.5193 20.927 10.512 20.9323 10.5051C20.9381 10.4978 20.9441 10.4909 20.9493 10.4831C20.9553 10.4733 20.9607 10.4631 20.9656 10.4527ZM7.9829 10.625L11.0718 18.2281L4.02453 10.625H7.9829ZM15.3465 10.625L12 18.8622L8.65347 10.625H15.3465ZM8.82044 10L12 5.82594L15.1796 10H8.82044ZM16.0171 10.625H19.9756L12.9282 18.2281L16.0171 10.625ZM20.0058 10H15.9619L12.6291 5.625H16.204L20.0058 10ZM7.79591 5.625H11.3708L8.03806 10H3.99427L7.79591 5.625Z" fill="#00A6ED"/>
<path d="M20.9766 10.4309L21.162 10.506L21.1633 10.5027L20.9766 10.4309ZM20.9893 10.3897L20.7955 10.3401L20.7945 10.3444L20.9893 10.3897ZM20.9938 10.3743L20.7976 10.3356L20.7973 10.337L20.9938 10.3743ZM20.9998 10.3149L21.1998 10.3161V10.3149H20.9998ZM20.9984 10.2973L20.7985 10.3037L20.7987 10.3063L20.9984 10.2973ZM20.9943 10.2554L21.1915 10.2221L21.1909 10.2189L20.9943 10.2554ZM20.9881 10.2312L20.794 10.2796L20.795 10.2833L20.9881 10.2312ZM20.978 10.1988L21.1656 10.1292L21.1645 10.1265L20.978 10.1988ZM20.9666 10.1741L20.786 10.2601L20.7871 10.2623L20.9666 10.1741ZM20.9517 10.1465L21.1227 10.0426L21.1196 10.0379L20.9517 10.1465ZM20.9347 10.1228L20.7763 10.2449L20.7776 10.2465L20.9347 10.1228ZM20.9232 10.1067L21.075 9.97651L21.0742 9.97554L20.9232 10.1067ZM16.5784 5.10672L16.4274 5.2379L16.4274 5.2379L16.5784 5.10672ZM16.3448 5L16.3448 4.8H16.3448V5ZM7.65517 5V4.8H7.65516L7.65517 5ZM7.42164 5.10672L7.5726 5.2379L7.5726 5.2379L7.42164 5.10672ZM3.07681 10.1067L3.22763 10.2381L3.22778 10.2379L3.07681 10.1067ZM3.06525 10.1228L3.22241 10.2466L3.22453 10.2438L3.06525 10.1228ZM3.04834 10.1465L2.8803 10.0379L2.87739 10.0427L3.04834 10.1465ZM3.03344 10.1741L3.21292 10.2623L3.21398 10.2601L3.03344 10.1741ZM3.02196 10.1988L2.83549 10.1264L2.8345 10.1291L3.02196 10.1988ZM3.01195 10.2311L3.20519 10.2828L3.20595 10.2797L3.01195 10.2311ZM3.00574 10.2553L2.80913 10.2185L2.8085 10.2222L3.00574 10.2553ZM3.00155 10.2972L3.20136 10.3062L3.20144 10.3038L3.00155 10.2972ZM3 10.3125H2.8V10.3224L2.80098 10.3323L3 10.3125ZM3.00023 10.3148L3.20023 10.3137L3.20018 10.3044L3.19925 10.2951L3.00023 10.3148ZM3.00621 10.3743L3.2027 10.337L3.20243 10.3356L3.00621 10.3743ZM3.01071 10.3897L3.20561 10.3444L3.20395 10.3381L3.01071 10.3897ZM3.02335 10.4309L2.83669 10.5027L2.838 10.506L3.02335 10.4309ZM3.03445 10.4527L3.21582 10.3682L3.21282 10.3623L3.03445 10.4527ZM3.05074 10.4831L2.88019 10.5877L2.88347 10.5927L3.05074 10.4831ZM3.06766 10.5051L3.22546 10.3822L3.22522 10.3819L3.06766 10.5051ZM3.08348 10.5257L3.23016 10.3897L3.22975 10.3893L3.08348 10.5257ZM11.7731 19.9007L11.9202 19.7651L11.9198 19.7648L11.7731 19.9007ZM11.7797 19.9065L11.9228 19.7667L11.9216 19.7656L11.7797 19.9065ZM11.815 19.9375L11.6944 20.0972L11.6978 20.0996L11.815 19.9375ZM11.8238 19.9444L11.9377 19.78L11.9362 19.779L11.8238 19.9444ZM11.8725 19.972L11.957 19.7907L11.9548 19.7897L11.8725 19.972ZM11.8853 19.977L11.8106 20.1626L11.8106 20.1626L11.8853 19.977ZM11.9275 19.9906L11.8803 20.1849L11.8807 20.185L11.9275 19.9906ZM11.943 19.9941L11.9841 19.7983L11.9808 19.7977L11.943 19.9941ZM12.057 19.9941L12.0192 19.7977L12.0159 19.7983L12.057 19.9941ZM12.0725 19.9906L12.1165 20.1857L12.1198 20.1849L12.0725 19.9906ZM12.1147 19.977L12.1893 20.1626L12.1894 20.1626L12.1147 19.977ZM12.1275 19.972L12.0452 19.7897L12.0442 19.7901L12.1275 19.972ZM12.1762 19.9444L12.0638 19.779L12.0623 19.78L12.1762 19.9444ZM12.185 19.9375L12.3022 20.0996L12.3055 20.0971L12.185 19.9375ZM12.2203 19.9065L12.0784 19.7656L12.0772 19.7668L12.2203 19.9065ZM12.2269 19.9008L12.0802 19.7648L12.0796 19.7654L12.2269 19.9008ZM20.9165 10.5258L21.0632 10.6617L21.0636 10.6613L20.9165 10.5258ZM20.9323 10.5051L20.7754 10.3811L20.7745 10.3822L20.9323 10.5051ZM20.9493 10.4831L21.1166 10.5927L21.1197 10.5876L20.9493 10.4831ZM7.9829 10.625L8.16819 10.5497L8.11752 10.425H7.9829V10.625ZM11.0718 18.2281L10.9251 18.3641L11.2571 18.1529L11.0718 18.2281ZM4.02453 10.625V10.425H3.56645L3.87784 10.761L4.02453 10.625ZM15.3465 10.625L15.5318 10.7003L15.6437 10.425H15.3465V10.625ZM12 18.8622L11.8147 18.9375L12 19.3936L12.1853 18.9375L12 18.8622ZM8.65347 10.625V10.425H8.35634L8.46818 10.7003L8.65347 10.625ZM8.82044 10L8.66134 9.87881L8.41667 10.2H8.82044V10ZM12 5.82594L12.1591 5.70475L12 5.49588L11.8409 5.70475L12 5.82594ZM15.1796 10V10.2H15.5833L15.3387 9.87881L15.1796 10ZM16.0171 10.625V10.425H15.8825L15.8318 10.5497L16.0171 10.625ZM19.9756 10.625L20.1222 10.761L20.4336 10.425H19.9756V10.625ZM12.9282 18.2281L12.7429 18.1529L13.0749 18.3641L12.9282 18.2281ZM20.0058 10V10.2H20.4446L20.1568 9.86882L20.0058 10ZM15.9619 10L15.8028 10.1212L15.8628 10.2H15.9619V10ZM12.6291 5.625V5.425H12.2254L12.47 5.74619L12.6291 5.625ZM16.204 5.625L16.355 5.49381L16.2952 5.425H16.204V5.625ZM7.79591 5.625V5.425H7.70475L7.64495 5.49382L7.79591 5.625ZM11.3708 5.625L11.5299 5.74619L11.7745 5.425L11.3708 5.425V5.625ZM8.03806 10V10.2H8.13713L8.19716 10.1212L8.03806 10ZM3.99427 10L3.8433 9.86882L3.55552 10.2H3.99427V10ZM21.1439 10.5432C21.1436 10.5437 21.1436 10.5438 21.1443 10.5425C21.1446 10.542 21.1465 10.5385 21.1477 10.5362C21.1507 10.5306 21.1565 10.5196 21.162 10.506L20.7913 10.3557C20.7937 10.3498 20.7958 10.3461 20.7949 10.3477C20.7948 10.348 20.7945 10.3484 20.7941 10.3492C20.7938 10.3498 20.7931 10.3511 20.7925 10.3521C20.7913 10.3544 20.7893 10.3581 20.7872 10.3623L21.1439 10.5432ZM21.1633 10.5027C21.1718 10.4807 21.1787 10.458 21.1841 10.435L20.7945 10.3444C20.7933 10.3494 20.7918 10.3542 20.79 10.359L21.1633 10.5027ZM21.1831 10.4393C21.1821 10.4432 21.1812 10.4459 21.181 10.4466C21.1808 10.447 21.1808 10.4471 21.1809 10.4467C21.1809 10.4467 21.1814 10.4453 21.1817 10.4445C21.1823 10.4424 21.1838 10.4381 21.1852 10.4329C21.1868 10.4275 21.1886 10.4202 21.1903 10.4116L20.7973 10.337C20.7984 10.331 20.7997 10.3264 20.8005 10.3236C20.8012 10.3209 20.8018 10.3192 20.8016 10.3196C20.8015 10.3201 20.8015 10.32 20.8011 10.3212C20.8009 10.322 20.8004 10.3234 20.7999 10.3251C20.7988 10.3283 20.7972 10.3336 20.7955 10.3401L21.1831 10.4393ZM21.19 10.413C21.1963 10.3811 21.1996 10.3486 21.1998 10.3161L20.7998 10.3137C20.7997 10.3211 20.799 10.3284 20.7976 10.3356L21.19 10.413ZM21.1998 10.3149C21.1998 10.3238 21.1992 10.3311 21.1986 10.3362C21.1983 10.3386 21.1981 10.3407 21.1979 10.3419C21.1978 10.3426 21.1977 10.3431 21.1977 10.3435C21.1976 10.3436 21.1976 10.3438 21.1976 10.3438C21.1976 10.3439 21.1976 10.344 21.1976 10.344C21.1975 10.3448 21.1981 10.3407 21.1986 10.3361C21.1992 10.3309 21.2 10.3227 21.2 10.3126H20.8C20.8 10.3029 20.8007 10.295 20.8013 10.2902C20.8018 10.286 20.8024 10.2823 20.8022 10.2835C20.8022 10.2836 20.802 10.2847 20.8018 10.2861C20.8016 10.2876 20.8013 10.2898 20.801 10.2925C20.8004 10.2979 20.7998 10.3056 20.7998 10.3149H21.1998ZM21.2 10.3126C21.2 10.303 21.1994 10.2949 21.1988 10.2889C21.1982 10.2832 21.1976 10.2784 21.1973 10.2767C21.1969 10.2737 21.1971 10.2754 21.1973 10.2765C21.1975 10.2783 21.198 10.2826 21.1982 10.2883L20.7987 10.3063C20.799 10.3145 20.7998 10.3213 20.8003 10.3257C20.8006 10.3279 20.8008 10.3297 20.801 10.3309C20.8011 10.3315 20.8012 10.332 20.8012 10.3324C20.8013 10.3328 20.8013 10.3329 20.8013 10.3331C20.8014 10.3338 20.8011 10.3316 20.8008 10.3284C20.8004 10.325 20.8 10.3195 20.8 10.3126H21.2ZM21.1983 10.2908C21.1976 10.2678 21.1953 10.2448 21.1915 10.2221L20.7971 10.2887C20.7979 10.2937 20.7984 10.2987 20.7985 10.3037L21.1983 10.2908ZM21.1909 10.2189C21.1887 10.2071 21.1861 10.1972 21.1844 10.1908C21.1836 10.1877 21.1827 10.1847 21.1822 10.1829C21.1816 10.1808 21.1813 10.1798 21.1811 10.179L20.795 10.2833C20.7958 10.2866 20.7967 10.2896 20.7972 10.2915C20.7979 10.2937 20.7981 10.2947 20.7984 10.2955C20.7988 10.2971 20.7983 10.2953 20.7976 10.2919L21.1909 10.2189ZM21.1821 10.1827C21.1776 10.1646 21.172 10.1467 21.1655 10.1292L20.7905 10.2684C20.7919 10.2721 20.7931 10.2758 20.794 10.2796L21.1821 10.1827ZM21.1645 10.1265C21.1571 10.1075 21.1477 10.0892 21.146 10.0858L20.7871 10.2623C20.7881 10.2644 20.7897 10.2676 20.7903 10.2687C20.7911 10.2705 20.7916 10.2715 20.792 10.2723C20.7928 10.2739 20.7924 10.2732 20.7916 10.2712L21.1645 10.1265ZM21.1471 10.088C21.1397 10.0725 21.1315 10.0574 21.1226 10.0427L20.7807 10.2503C20.7826 10.2535 20.7844 10.2568 20.786 10.2601L21.1471 10.088ZM21.1196 10.0379C21.111 10.0246 21.1017 10.0116 21.0919 9.99908L20.7776 10.2465C20.7798 10.2493 20.7818 10.2521 20.7837 10.2551L21.1196 10.0379ZM21.0932 10.0007C21.0952 10.0034 21.0965 10.0053 21.0968 10.0056C21.0969 10.0058 21.0969 10.0058 21.0966 10.0053C21.0965 10.0053 21.0955 10.0038 21.0951 10.0031C21.0927 9.99961 21.0853 9.98858 21.075 9.97652L20.7714 10.2369C20.7682 10.2332 20.7659 10.2301 20.7646 10.2283C20.7633 10.2267 20.7626 10.2256 20.7632 10.2264C20.7636 10.2271 20.7635 10.2269 20.7644 10.2282C20.765 10.2291 20.7659 10.2305 20.767 10.232C20.769 10.235 20.7723 10.2396 20.7763 10.2449L21.0932 10.0007ZM21.0742 9.97554L16.7293 4.97553L16.4274 5.2379L20.7722 10.2379L21.0742 9.97554ZM16.7293 4.97554C16.6815 4.92052 16.6225 4.87634 16.5562 4.84603L16.3899 5.20984C16.4042 5.21634 16.4169 5.22588 16.4274 5.2379L16.7293 4.97554ZM16.5562 4.84603C16.4898 4.81572 16.4178 4.80001 16.3448 4.8L16.3448 5.2C16.3603 5.2 16.3757 5.20334 16.3899 5.20984L16.5562 4.84603ZM16.3448 4.8H7.65517V5.2H16.3448V4.8ZM7.65516 4.8C7.58221 4.80001 7.51015 4.81571 7.44382 4.84603L7.61007 5.20984C7.6243 5.20334 7.63967 5.2 7.65519 5.2L7.65516 4.8ZM7.44382 4.84603C7.37749 4.87634 7.31848 4.92052 7.27067 4.97554L7.5726 5.2379C7.58305 5.22588 7.59584 5.21634 7.61007 5.20984L7.44382 4.84603ZM7.27067 4.97553L2.92584 9.97554L3.22778 10.2379L7.5726 5.2379L7.27067 4.97553ZM2.92599 9.97537C2.91516 9.98781 2.90755 9.99917 2.90494 10.003C2.90427 10.004 2.90349 10.0052 2.90326 10.0056C2.90288 10.0061 2.90281 10.0062 2.90286 10.0062C2.90293 10.006 2.90411 10.0043 2.90597 10.0019L3.22453 10.2438C3.22841 10.2387 3.23148 10.2342 3.23342 10.2314C3.23439 10.23 3.23524 10.2287 3.23577 10.2279C3.23645 10.2269 3.23658 10.2267 3.23683 10.2263C3.23722 10.2257 3.23641 10.227 3.23503 10.2288C3.23356 10.2308 3.23107 10.2341 3.22763 10.2381L2.92599 9.97537ZM2.90812 9.99908C2.89827 10.0116 2.88901 10.0246 2.88037 10.0379L3.21631 10.2551C3.2182 10.2521 3.22023 10.2493 3.22238 10.2465L2.90812 9.99908ZM2.87739 10.0427C2.86847 10.0574 2.86029 10.0725 2.8529 10.088L3.21398 10.2601C3.21559 10.2568 3.21735 10.2535 3.21928 10.2503L2.87739 10.0427ZM2.85397 10.0858C2.85232 10.0892 2.84287 10.1075 2.83551 10.1265L3.2084 10.2712C3.20763 10.2732 3.20724 10.2739 3.20799 10.2723C3.20837 10.2715 3.20888 10.2705 3.20974 10.2687C3.21028 10.2676 3.2119 10.2644 3.21291 10.2623L2.85397 10.0858ZM2.8345 10.1291C2.828 10.1466 2.82248 10.1644 2.81795 10.1825L3.20595 10.2797C3.2069 10.2759 3.20806 10.2722 3.20941 10.2685L2.8345 10.1291ZM2.81874 10.1794C2.81635 10.1884 2.81946 10.1765 2.81559 10.1908C2.81391 10.197 2.81135 10.2068 2.80916 10.2185L3.20232 10.2922C3.20168 10.2955 3.20115 10.2973 3.20164 10.2955C3.2019 10.2945 3.20219 10.2935 3.20284 10.2912C3.2034 10.2892 3.20426 10.2861 3.20516 10.2828L2.81874 10.1794ZM2.8085 10.2222C2.80471 10.2448 2.80242 10.2677 2.80166 10.2906L3.20144 10.3038C3.20161 10.2987 3.20213 10.2935 3.20298 10.2884L2.8085 10.2222ZM2.80176 10.2882C2.80201 10.2825 2.8025 10.2783 2.80271 10.2765C2.80285 10.2754 2.80308 10.2739 2.80267 10.2767C2.80243 10.2784 2.80176 10.2831 2.80119 10.2888C2.80061 10.2947 2.8 10.3029 2.8 10.3125H3.2C3.2 10.3195 3.19956 10.3251 3.19923 10.3284C3.19892 10.3316 3.19859 10.3337 3.19871 10.3329C3.19873 10.3327 3.19875 10.3326 3.19881 10.3322C3.19886 10.3318 3.19894 10.3313 3.19902 10.3307C3.19919 10.3295 3.19944 10.3277 3.19971 10.3255C3.20024 10.3212 3.20098 10.3144 3.20135 10.3062L2.80176 10.2882ZM2.80098 10.3323L2.80121 10.3346L3.19925 10.2951L3.19902 10.2927L2.80098 10.3323ZM2.80024 10.316C2.80042 10.3485 2.80368 10.381 2.80998 10.413L3.20243 10.3356C3.20101 10.3284 3.20027 10.3211 3.20023 10.3137L2.80024 10.316ZM2.80972 10.4116C2.81272 10.4274 2.81686 10.44 2.81816 10.444C2.8185 10.4451 2.81889 10.4462 2.819 10.4466C2.81918 10.4471 2.81918 10.4471 2.81912 10.4469C2.81901 10.4466 2.81831 10.4444 2.81747 10.4412L3.20395 10.3381C3.20241 10.3324 3.20092 10.3276 3.19999 10.3247C3.19953 10.3233 3.19911 10.322 3.19887 10.3213C3.19857 10.3204 3.19853 10.3202 3.19847 10.32C3.19837 10.3198 3.19896 10.3215 3.1997 10.3242C3.20048 10.327 3.20163 10.3314 3.2027 10.337L2.80972 10.4116ZM2.8159 10.435C2.82126 10.458 2.82821 10.4807 2.83671 10.5027L3.20999 10.359C3.20816 10.3542 3.20667 10.3494 3.20551 10.3444L2.8159 10.435ZM2.838 10.506C2.84353 10.5196 2.84927 10.5306 2.85227 10.5362C2.85351 10.5385 2.85544 10.542 2.85568 10.5425C2.85638 10.5438 2.85635 10.5437 2.85607 10.5432L3.21282 10.3623C3.21068 10.3581 3.20873 10.3544 3.20748 10.3521C3.20691 10.3511 3.2062 10.3498 3.20589 10.3492C3.20546 10.3484 3.20523 10.348 3.20506 10.3477C3.20422 10.3461 3.20628 10.3498 3.2087 10.3557L2.838 10.506ZM2.85317 10.5372C2.86124 10.5545 2.87028 10.5714 2.88026 10.5876L3.22122 10.3785C3.2192 10.3752 3.21736 10.3718 3.21572 10.3682L2.85317 10.5372ZM2.88347 10.5927C2.8909 10.604 2.89799 10.6131 2.90237 10.6187C2.91026 10.6286 2.90634 10.6235 2.91009 10.6283L3.22522 10.3819C3.2227 10.3787 3.22036 10.3758 3.21884 10.3739C3.21702 10.3717 3.21631 10.3708 3.21556 10.3698C3.2142 10.3681 3.21571 10.3699 3.21801 10.3734L2.88347 10.5927ZM2.90985 10.628C2.90903 10.6269 2.90871 10.6264 2.90942 10.6274C2.9098 10.6279 2.91016 10.6284 2.91091 10.6295C2.91156 10.6304 2.91251 10.6317 2.91355 10.6332C2.91743 10.6385 2.92575 10.6498 2.93721 10.6621L3.22975 10.3893C3.23524 10.3952 3.23833 10.3996 3.23712 10.398C3.23689 10.3977 3.23658 10.3972 3.23597 10.3964C3.23546 10.3957 3.23456 10.3944 3.23367 10.3932C3.23185 10.3907 3.22895 10.3867 3.22546 10.3822L2.90985 10.628ZM2.9368 10.6617L11.6265 20.0367L11.9198 19.7648L3.23016 10.3897L2.9368 10.6617ZM11.6261 20.0363C11.6328 20.0435 11.6389 20.0491 11.6432 20.0529C11.6472 20.0564 11.6507 20.0592 11.6515 20.0598C11.6531 20.0611 11.6512 20.0596 11.6494 20.0581C11.6471 20.0562 11.6429 20.0525 11.6378 20.0474L11.9216 19.7656C11.9155 19.7594 11.9102 19.7548 11.9068 19.7519C11.9051 19.7505 11.9037 19.7493 11.9028 19.7486C11.9023 19.7483 11.902 19.748 11.9017 19.7478C11.9013 19.7474 11.9016 19.7477 11.9014 19.7475C11.9009 19.7471 11.9033 19.749 11.9063 19.7516C11.9095 19.7544 11.9145 19.759 11.9202 19.7651L11.6261 20.0363ZM11.6367 20.0462C11.6546 20.0646 11.6739 20.0816 11.6945 20.0971L11.9355 19.7779C11.931 19.7745 11.9268 19.7708 11.9228 19.7668L11.6367 20.0462ZM11.6978 20.0996C11.695 20.0976 11.693 20.096 11.6923 20.0954C11.6919 20.0951 11.6912 20.0946 11.6927 20.0958C11.6937 20.0966 11.6961 20.0985 11.699 20.1008C11.702 20.1031 11.7062 20.1063 11.7114 20.1098L11.9362 19.779C11.9398 19.7814 11.9426 19.7835 11.9441 19.7847C11.9455 19.7858 11.9465 19.7866 11.946 19.7861C11.9458 19.7861 11.9457 19.786 11.9455 19.7858C11.9453 19.7856 11.945 19.7854 11.9447 19.7851C11.9441 19.7846 11.9432 19.7839 11.942 19.783C11.9399 19.7812 11.9364 19.7785 11.9321 19.7754L11.6978 20.0996ZM11.7099 20.1088C11.7352 20.1263 11.7621 20.1416 11.7903 20.1543L11.9548 19.7897C11.9488 19.787 11.9431 19.7838 11.9377 19.78L11.7099 20.1088ZM11.788 20.1532C11.7971 20.1574 11.8048 20.1604 11.8082 20.1617C11.8091 20.162 11.8099 20.1623 11.8105 20.1625C11.8111 20.1628 11.8114 20.1629 11.8116 20.163C11.8121 20.1632 11.8116 20.163 11.8106 20.1626L11.96 19.7915C11.9569 19.7903 11.9542 19.7892 11.9526 19.7886C11.9518 19.7883 11.951 19.788 11.9505 19.7879C11.95 19.7877 11.9498 19.7876 11.9496 19.7875C11.9487 19.7872 11.9522 19.7884 11.957 19.7907L11.788 20.1532ZM11.8106 20.1626C11.8333 20.1717 11.8566 20.1792 11.8803 20.1849L11.9746 19.7962C11.9697 19.795 11.9648 19.7934 11.96 19.7915L11.8106 20.1626ZM11.8807 20.185C11.8838 20.1858 11.8943 20.1884 11.9052 20.1905L11.9808 19.7977C11.9814 19.7978 11.9815 19.7978 11.9803 19.7976C11.9788 19.7972 11.9777 19.7969 11.9742 19.7961L11.8807 20.185ZM11.9019 20.1898C11.9666 20.2034 12.0334 20.2034 12.0981 20.1898L12.0159 19.7983C12.0054 19.8006 11.9946 19.8006 11.9841 19.7983L11.9019 20.1898ZM12.0948 20.1905C12.1015 20.1892 12.1073 20.1878 12.1107 20.187C12.1154 20.1859 12.1151 20.186 12.1165 20.1857L12.0286 19.7955C12.0262 19.796 12.024 19.7965 12.0225 19.7969C12.0205 19.7973 12.0201 19.7974 12.019 19.7977C12.0172 19.7981 12.0178 19.798 12.0192 19.7977L12.0948 20.1905ZM12.1198 20.1849C12.1435 20.1791 12.1667 20.1717 12.1893 20.1626L12.04 19.7915C12.0352 19.7934 12.0303 19.795 12.0253 19.7962L12.1198 20.1849ZM12.1894 20.1626C12.1886 20.1629 12.1882 20.163 12.1887 20.1628C12.189 20.1627 12.1893 20.1626 12.1899 20.1624C12.1904 20.1622 12.1912 20.1619 12.1921 20.1616C12.1954 20.1603 12.2024 20.1576 12.2107 20.1538L12.0442 19.7901C12.0482 19.7883 12.051 19.7872 12.0501 19.7876C12.0499 19.7877 12.0496 19.7878 12.0491 19.788C12.0486 19.7882 12.0478 19.7885 12.0471 19.7888C12.0454 19.7894 12.0429 19.7903 12.0399 19.7915L12.1894 20.1626ZM12.2097 20.1543C12.2379 20.1416 12.2648 20.1263 12.2901 20.1088L12.0623 19.78C12.0569 19.7838 12.0511 19.787 12.0452 19.7897L12.2097 20.1543ZM12.2886 20.1098C12.2938 20.1063 12.298 20.1031 12.301 20.1008C12.3039 20.0985 12.3063 20.0966 12.3073 20.0958C12.3088 20.0946 12.3081 20.0951 12.3077 20.0954C12.307 20.096 12.305 20.0976 12.3022 20.0996L12.0679 19.7754C12.0636 19.7785 12.0601 19.7812 12.058 19.783C12.0568 19.7839 12.0559 19.7846 12.0553 19.7851C12.055 19.7854 12.0547 19.7856 12.0545 19.7858C12.0543 19.786 12.0542 19.7861 12.054 19.7861C12.0535 19.7866 12.0545 19.7858 12.0559 19.7847C12.0574 19.7835 12.0602 19.7814 12.0638 19.779L12.2886 20.1098ZM12.3055 20.0971C12.3261 20.0816 12.3454 20.0646 12.3633 20.0462L12.0772 19.7668C12.0732 19.7708 12.069 19.7745 12.0645 19.7779L12.3055 20.0971ZM12.3622 20.0474C12.3567 20.0529 12.3521 20.0569 12.3496 20.0589C12.3476 20.0606 12.3455 20.0622 12.3471 20.061C12.3477 20.0605 12.3514 20.0576 12.3557 20.054C12.3601 20.0501 12.3668 20.0441 12.3741 20.0362L12.0796 19.7654C12.086 19.7585 12.0916 19.7535 12.095 19.7506C12.0981 19.7479 12.1007 19.7459 12.1001 19.7463C12.1001 19.7464 12.1001 19.7464 12.1 19.7464C12.0999 19.7465 12.0998 19.7466 12.0997 19.7467C12.0994 19.7469 12.099 19.7472 12.0985 19.7476C12.0976 19.7484 12.096 19.7496 12.0942 19.7511C12.0906 19.7541 12.0849 19.759 12.0784 19.7656L12.3622 20.0474ZM12.3735 20.0368L21.0632 10.6617L20.7698 10.3898L12.0802 19.7648L12.3735 20.0368ZM21.0636 10.6613C21.0747 10.6493 21.0828 10.6382 21.0866 10.633C21.0876 10.6316 21.0885 10.6303 21.0892 10.6294C21.0899 10.6284 21.0903 10.6279 21.0906 10.6274C21.0913 10.6264 21.091 10.6269 21.0901 10.628L20.7745 10.3822C20.771 10.3867 20.7681 10.3907 20.7663 10.3932C20.7654 10.3945 20.7645 10.3958 20.7639 10.3965C20.7633 10.3974 20.763 10.3978 20.7627 10.3982C20.7614 10.4 20.7643 10.3958 20.7694 10.3903L21.0636 10.6613ZM21.0893 10.6291C21.0898 10.6284 21.0906 10.6275 21.0921 10.6256C21.0934 10.624 21.0956 10.6213 21.0978 10.6185C21.1023 10.6128 21.1093 10.6038 21.1165 10.5927L20.782 10.3734C20.7841 10.3701 20.7855 10.3685 20.7843 10.3701C20.7836 10.3709 20.7829 10.3718 20.7813 10.3738C20.7799 10.3755 20.7777 10.3782 20.7754 10.3811L21.0893 10.6291ZM21.1197 10.5876C21.1297 10.5714 21.1388 10.5545 21.1468 10.5372L20.7843 10.3682C20.7826 10.3718 20.7808 10.3752 20.7788 10.3785L21.1197 10.5876ZM7.7976 10.7003L10.8865 18.3034L11.2571 18.1529L8.16819 10.5497L7.7976 10.7003ZM11.2184 18.0922L4.17121 10.489L3.87784 10.761L10.9251 18.3641L11.2184 18.0922ZM4.02453 10.825H7.9829V10.425H4.02453V10.825ZM15.1612 10.5497L11.8147 18.7869L12.1853 18.9375L15.5318 10.7003L15.1612 10.5497ZM12.1853 18.7869L8.83877 10.5497L8.46818 10.7003L11.8147 18.9375L12.1853 18.7869ZM8.65347 10.825H15.3465V10.425H8.65347V10.825ZM8.97954 10.1212L12.1591 5.94713L11.8409 5.70475L8.66134 9.87881L8.97954 10.1212ZM11.8409 5.94713L15.0205 10.1212L15.3387 9.87881L12.1591 5.70475L11.8409 5.94713ZM15.1796 9.8H8.82044V10.2H15.1796V9.8ZM16.0171 10.825H19.9756V10.425H16.0171V10.825ZM19.8289 10.489L12.7816 18.0922L13.0749 18.3641L20.1222 10.761L19.8289 10.489ZM13.1135 18.3034L16.2024 10.7003L15.8318 10.5497L12.7429 18.1529L13.1135 18.3034ZM20.0058 9.8H15.9619V10.2H20.0058V9.8ZM16.121 9.87881L12.7882 5.50381L12.47 5.74619L15.8028 10.1212L16.121 9.87881ZM12.6291 5.825H16.204V5.425H12.6291V5.825ZM16.053 5.75619L19.8548 10.1312L20.1568 9.86882L16.355 5.49381L16.053 5.75619ZM7.79591 5.825H11.3708V5.425H7.79591V5.825ZM11.2117 5.50381L7.87896 9.87881L8.19716 10.1212L11.5299 5.74619L11.2117 5.50381ZM8.03806 9.8H3.99427V10.2H8.03806V9.8ZM4.14523 10.1312L7.94688 5.75618L7.64495 5.49382L3.8433 9.86882L4.14523 10.1312Z" fill="#00A6ED" mask="url(#path-2-outside-1)"/>
<g clip-path="url(#clip0)">
<path d="M19.7495 0.300785H4.24928C3.69093 0.300094 3.13794 0.409558 2.62196 0.622908C2.10598 0.836258 1.63717 1.1493 1.24236 1.54411C0.847545 1.93892 0.534501 2.40774 0.32115 2.92372C0.1078 3.43969 -0.00166427 3.99269 -0.000973312 4.55103V19.449C-0.00166427 20.0074 0.1078 20.5604 0.32115 21.0764C0.534501 21.5923 0.847545 22.0611 1.24236 22.456C1.63717 22.8508 2.10598 23.1638 2.62196 23.3772C3.13794 23.5905 3.69093 23.7 4.24928 23.6993H19.7495C20.3079 23.7 20.8609 23.5905 21.3768 23.3772C21.8928 23.1638 22.3616 22.8508 22.7564 22.456C23.1513 22.0611 23.4643 21.5923 23.6777 21.0764C23.891 20.5604 24.0005 20.0074 23.9998 19.449V4.55103C24.0005 3.99269 23.891 3.43969 23.6777 2.92372C23.4643 2.40774 23.1513 1.93892 22.7564 1.54411C22.3616 1.1493 21.8928 0.836258 21.3768 0.622908C20.8609 0.409558 20.3079 0.300094 19.7495 0.300785ZM22.988 19.059C22.9908 19.5359 22.8993 20.0086 22.7188 20.45C22.5382 20.8913 22.2723 21.2927 21.9361 21.6309C21.6 21.9692 21.2003 22.2376 20.76 22.4209C20.3198 22.6042 19.8476 22.6986 19.3708 22.6988H4.62878C3.66667 22.6974 2.74436 22.3146 2.06404 21.6343C1.38373 20.954 1.00092 20.0316 0.999527 19.0695V4.92978C1.00092 3.96767 1.38373 3.04537 2.06404 2.36505C2.74436 1.68474 3.66667 1.30192 4.62878 1.30053H19.3588C20.3213 1.30073 21.2443 1.68316 21.9248 2.36374C22.6054 3.04431 22.9878 3.96731 22.988 4.92978V19.059Z" fill="#00A6ED"/>
</g>
<defs>
<clipPath id="clip0">
<rect width="24" height="24" fill="white"/>
</clipPath>
</defs>
</svg>
