<svg width="49" height="49" viewBox="0 0 49 49" fill="none" xmlns="http://www.w3.org/2000/svg">
<path opacity="0.1" d="M44.9167 0H4.08333C3.00037 0 1.96175 0.430207 1.19598 1.19598C0.430207 1.96175 0 3.00037 0 4.08333V44.9167C0 45.9996 0.430207 47.0382 1.19598 47.804C1.96175 48.5698 3.00037 49 4.08333 49H44.9167C45.9996 49 47.0382 48.5698 47.804 47.804C48.5698 47.0382 49 45.9996 49 44.9167V4.08333C49 3.00037 48.5698 1.96175 47.804 1.19598C47.0382 0.430207 45.9996 0 44.9167 0V0ZM44.9167 44.9167H4.08333V32.6667L14.2917 22.4583L25.7046 33.8713C26.4696 34.6318 27.5046 35.0587 28.5833 35.0587C29.6621 35.0587 30.697 34.6318 31.4621 33.8713L34.7083 30.625L44.9167 40.8333V44.9167ZM44.9167 35.0554L37.5871 27.7258C36.822 26.9653 35.7871 26.5384 34.7083 26.5384C33.6296 26.5384 32.5946 26.9653 31.8296 27.7258L28.5833 30.9721L17.1704 19.5592C16.4054 18.7986 15.3704 18.3718 14.2917 18.3718C13.2129 18.3718 12.178 18.7986 11.4129 19.5592L4.08333 26.8888V4.08333H44.9167V35.0554Z" fill="black"/>
<path opacity="0.1" d="M25.125 18.25C26.3364 18.25 27.5206 17.8908 28.5279 17.2178C29.5351 16.5447 30.3202 15.5881 30.7838 14.4689C31.2473 13.3497 31.3686 12.1182 31.1323 10.9301C30.896 9.74194 30.3126 8.65057 29.456 7.79397C28.5994 6.93738 27.5081 6.35403 26.3199 6.11769C25.1318 5.88136 23.9003 6.00265 22.7811 6.46624C21.6619 6.92983 20.7053 7.71488 20.0322 8.72214C19.3592 9.72939 19 10.9136 19 12.125C19 13.7495 19.6453 15.3074 20.794 16.456C21.9426 17.6047 23.5005 18.25 25.125 18.25V18.25ZM25.125 10.0833C25.5288 10.0833 25.9235 10.2031 26.2593 10.4274C26.595 10.6518 26.8567 10.9706 27.0113 11.3437C27.1658 11.7168 27.2062 12.1273 27.1274 12.5233C27.0487 12.9194 26.8542 13.2831 26.5687 13.5687C26.2831 13.8542 25.9194 14.0487 25.5233 14.1274C25.1273 14.2062 24.7168 14.1658 24.3437 14.0113C23.9706 13.8567 23.6518 13.595 23.4274 13.2593C23.2031 12.9235 23.0833 12.5288 23.0833 12.125C23.0833 11.5835 23.2984 11.0642 23.6813 10.6813C24.0642 10.2984 24.5835 10.0833 25.125 10.0833Z" fill="black"/>
</svg>
