<svg width="16" height="18" viewBox="0 0 16 18" fill="none" xmlns="http://www.w3.org/2000/svg">
<path d="M15.5721 4.51779C15.5737 4.23795 15.5041 3.96231 15.3698 3.7168C15.2355 3.47129 15.041 3.26401 14.8044 3.11446C14.5679 2.96491 14.2972 2.87801 14.0178 2.86196C13.7584 2.84705 13.4993 2.89372 13.2617 2.99777C13.2357 3.00919 13.2056 2.99153 13.2029 2.96319C13.1783 2.70252 13.0934 2.45084 12.9546 2.22815C12.8054 1.98855 12.5985 1.79014 12.3529 1.65099C12.1072 1.51184 11.8307 1.43638 11.5484 1.43151C11.2866 1.42698 11.0275 1.48334 10.7916 1.59578C10.7656 1.60819 10.7346 1.59086 10.7316 1.56219C10.6915 1.1796 10.5258 0.820354 10.2597 0.54102C9.97944 0.24692 9.60534 0.0598544 9.20193 0.0120981C8.79851 -0.0356581 8.39108 0.0588905 8.04993 0.279431C7.72299 0.490782 7.47657 0.80514 7.34917 1.17198C7.34068 1.19641 7.31192 1.20733 7.28936 1.19469C7.03413 1.05172 6.74625 0.976371 6.45314 0.976251C6.22503 0.976945 5.99929 1.02265 5.78888 1.11075C5.57846 1.19885 5.38749 1.32761 5.22693 1.48965C5.06637 1.65169 4.93937 1.84382 4.8532 2.05504C4.76703 2.26625 4.72339 2.4924 4.72479 2.72051V9.28992C4.72479 9.33718 4.66526 9.35802 4.63575 9.3211C3.98919 8.51213 3.37905 7.74025 3.28273 7.60337C3.1294 7.35991 2.9165 7.15958 2.66416 7.02135C2.41182 6.88312 2.12838 6.81155 1.84067 6.81342C1.59663 6.80604 1.35366 6.84876 1.12677 6.93894C0.899882 7.02911 0.693882 7.16484 0.521488 7.33773C0.349094 7.51062 0.213964 7.71701 0.12444 7.94416C0.0349164 8.1713 -0.00710198 8.41439 0.000978944 8.65841C0.0486942 9.61272 1.89368 12.9846 3.13428 14.819C5.01108 17.5971 6.80306 18 6.88258 18H12.46C12.5655 17.9989 12.6678 17.9635 12.7516 17.8993C13.7036 17.0219 14.3921 15.8964 14.7397 14.6493C15.2699 13.0111 15.5509 10.6572 15.5774 7.46023L15.5721 4.51779ZM13.8331 14.3524C13.5677 15.2519 13.1143 16.0833 12.5042 16.7922C12.3617 16.9579 12.1508 17.0457 11.9322 17.0457H7.13704C7.05971 17.0457 6.98306 17.0355 6.91065 17.0083C6.4902 16.8507 5.24206 16.2391 3.90833 14.2623C2.42385 12.0621 0.981793 9.13026 0.955285 8.61069C0.951012 8.49971 0.970034 8.38907 1.01113 8.28588C1.05222 8.1827 1.11446 8.08927 1.19386 8.0116C1.27207 7.93111 1.36623 7.86783 1.4703 7.82584C1.57438 7.78384 1.68608 7.76405 1.79825 7.76773C1.93831 7.75957 2.07788 7.79045 2.20143 7.8569C2.32499 7.92336 2.42768 8.0228 2.49808 8.14415C2.61889 8.32327 3.32232 9.20287 3.92941 9.96507C4.19011 10.2924 4.65882 10.3649 5.00565 10.1308L5.32663 9.91422C5.54701 9.76548 5.6791 9.51698 5.6791 9.25111V2.72051C5.67019 2.6124 5.68379 2.50362 5.71905 2.40104C5.7543 2.29846 5.81045 2.2043 5.88393 2.12451C5.95742 2.04472 6.04665 1.98103 6.14599 1.93747C6.24533 1.89391 6.35262 1.87141 6.4611 1.87141C6.56957 1.87141 6.67687 1.89391 6.77621 1.93747C6.87555 1.98103 6.96478 2.04472 7.03826 2.12451C7.11175 2.2043 7.16789 2.29846 7.20315 2.40104C7.2384 2.50362 7.25201 2.6124 7.2431 2.72051V8.14945C7.2431 8.41297 7.45673 8.6266 7.72025 8.6266C7.98377 8.6266 8.1974 8.41297 8.1974 8.14945V1.73439C8.21997 1.5393 8.31346 1.35931 8.46009 1.22866C8.60672 1.09801 8.79626 1.02582 8.99266 1.02582C9.18905 1.02582 9.37859 1.09801 9.52522 1.22866C9.67186 1.35931 9.76535 1.5393 9.78791 1.73439V8.21837C9.78791 8.48189 10.0015 8.69552 10.2651 8.69552C10.5286 8.69552 10.7422 8.48189 10.7422 8.21837V3.15525C10.7335 3.05072 10.7465 2.9455 10.7805 2.84626C10.8145 2.74702 10.8687 2.65591 10.9397 2.5787C11.0107 2.50149 11.0969 2.43985 11.193 2.39769C11.2891 2.35553 11.3928 2.33376 11.4977 2.33376C11.6026 2.33376 11.7064 2.35553 11.8024 2.39769C11.8985 2.43985 11.9847 2.50149 12.0557 2.5787C12.1268 2.65591 12.181 2.74702 12.215 2.84626C12.2489 2.9455 12.262 3.05072 12.2532 3.15525V8.74324C12.2532 9.00676 12.4668 9.22039 12.7304 9.22039C12.9939 9.22039 13.2075 9.00676 13.2075 8.74324V4.50188C13.2228 4.32611 13.3034 4.16245 13.4335 4.04322C13.5635 3.92398 13.7335 3.85784 13.91 3.85784C14.0864 3.85784 14.2564 3.92398 14.3865 4.04322C14.5165 4.16245 14.5972 4.32611 14.6125 4.50188V7.44432C14.5966 10.5776 14.3421 12.8096 13.8331 14.3524Z" fill="white"/>
</svg>
