<svg width="24" height="24" viewBox="0 0 24 24" fill="none" xmlns="http://www.w3.org/2000/svg">
<path d="M18.5721 7.51779C18.5737 7.23795 18.5041 6.96231 18.3698 6.7168C18.2355 6.47129 18.041 6.26401 17.8044 6.11446C17.5679 5.96491 17.2972 5.87801 17.0178 5.86196C16.7584 5.84705 16.4993 5.89372 16.2617 5.99777C16.2357 6.00919 16.2056 5.99153 16.2029 5.96319C16.1783 5.70252 16.0934 5.45084 15.9546 5.22815C15.8054 4.98855 15.5985 4.79014 15.3529 4.65099C15.1072 4.51184 14.8307 4.43638 14.5484 4.43151C14.2866 4.42698 14.0275 4.48334 13.7916 4.59578C13.7656 4.60819 13.7346 4.59086 13.7316 4.56219C13.6915 4.1796 13.5258 3.82035 13.2597 3.54102C12.9794 3.24692 12.6053 3.05985 12.2019 3.0121C11.7985 2.96434 11.3911 3.05889 11.0499 3.27943C10.723 3.49078 10.4766 3.80514 10.3492 4.17198C10.3407 4.19641 10.3119 4.20733 10.2894 4.19469C10.0341 4.05172 9.74625 3.97637 9.45314 3.97625C9.22503 3.97694 8.99929 4.02265 8.78888 4.11075C8.57846 4.19885 8.38749 4.32761 8.22693 4.48965C8.06637 4.65169 7.93937 4.84382 7.8532 5.05504C7.76703 5.26625 7.72339 5.4924 7.72479 5.72051V12.2899C7.72479 12.3372 7.66526 12.358 7.63575 12.3211C6.98919 11.5121 6.37905 10.7402 6.28273 10.6034C6.1294 10.3599 5.9165 10.1596 5.66416 10.0214C5.41182 9.88312 5.12838 9.81155 4.84067 9.81342C4.59663 9.80604 4.35366 9.84876 4.12677 9.93894C3.89988 10.0291 3.69388 10.1648 3.52149 10.3377C3.34909 10.5106 3.21396 10.717 3.12444 10.9442C3.03492 11.1713 2.9929 11.4144 3.00098 11.6584C3.04869 12.6127 4.89368 15.9846 6.13428 17.819C8.01108 20.5971 9.80306 21 9.88258 21H15.46C15.5655 20.9989 15.6678 20.9635 15.7516 20.8993C16.7036 20.0219 17.3921 18.8964 17.7397 17.6493C18.2699 16.0111 18.5509 13.6572 18.5774 10.4602L18.5721 7.51779ZM16.8331 17.3524C16.5677 18.2519 16.1143 19.0833 15.5042 19.7922C15.3617 19.9579 15.1508 20.0457 14.9322 20.0457H10.137C10.0597 20.0457 9.98306 20.0355 9.91065 20.0083C9.4902 19.8507 8.24206 19.2391 6.90833 17.2623C5.42385 15.0621 3.98179 12.1303 3.95528 11.6107C3.95101 11.4997 3.97003 11.3891 4.01113 11.2859C4.05222 11.1827 4.11446 11.0893 4.19386 11.0116C4.27207 10.9311 4.36623 10.8678 4.4703 10.8258C4.57438 10.7838 4.68608 10.764 4.79825 10.7677C4.93831 10.7596 5.07788 10.7904 5.20143 10.8569C5.32499 10.9234 5.42768 11.0228 5.49808 11.1441C5.61889 11.3233 6.32232 12.2029 6.92941 12.9651C7.19011 13.2924 7.65882 13.3649 8.00565 13.1308L8.32663 12.9142C8.54701 12.7655 8.6791 12.517 8.6791 12.2511V5.72051C8.67019 5.6124 8.68379 5.50362 8.71905 5.40104C8.7543 5.29846 8.81045 5.2043 8.88393 5.12451C8.95742 5.04472 9.04665 4.98103 9.14599 4.93747C9.24533 4.89391 9.35262 4.87141 9.4611 4.87141C9.56957 4.87141 9.67687 4.89391 9.77621 4.93747C9.87555 4.98103 9.96478 5.04472 10.0383 5.12451C10.1117 5.2043 10.1679 5.29846 10.2031 5.40104C10.2384 5.50362 10.252 5.6124 10.2431 5.72051V11.1494C10.2431 11.413 10.4567 11.6266 10.7202 11.6266C10.9838 11.6266 11.1974 11.413 11.1974 11.1494V4.73439C11.22 4.5393 11.3135 4.35931 11.4601 4.22866C11.6067 4.09801 11.7963 4.02582 11.9927 4.02582C12.1891 4.02582 12.3786 4.09801 12.5252 4.22866C12.6719 4.35931 12.7653 4.5393 12.7879 4.73439V11.2184C12.7879 11.4819 13.0015 11.6955 13.2651 11.6955C13.5286 11.6955 13.7422 11.4819 13.7422 11.2184V6.15525C13.7335 6.05072 13.7465 5.9455 13.7805 5.84626C13.8145 5.74702 13.8687 5.65591 13.9397 5.5787C14.0107 5.50149 14.0969 5.43985 14.193 5.39769C14.2891 5.35553 14.3928 5.33376 14.4977 5.33376C14.6026 5.33376 14.7064 5.35553 14.8024 5.39769C14.8985 5.43985 14.9847 5.50149 15.0557 5.5787C15.1268 5.65591 15.181 5.74702 15.215 5.84626C15.2489 5.9455 15.262 6.05072 15.2532 6.15525V11.7432C15.2532 12.0068 15.4668 12.2204 15.7304 12.2204C15.9939 12.2204 16.2075 12.0068 16.2075 11.7432V7.50188C16.2228 7.32611 16.3034 7.16245 16.4335 7.04322C16.5635 6.92398 16.7335 6.85784 16.91 6.85784C17.0864 6.85784 17.2564 6.92398 17.3865 7.04322C17.5165 7.16245 17.5972 7.32611 17.6125 7.50188V10.4443C17.5966 13.5776 17.3421 15.8096 16.8331 17.3524Z" fill="white"/>
</svg>
