<svg width="20" height="24" viewBox="0 0 20 24" fill="none" xmlns="http://www.w3.org/2000/svg">
<path d="M5.07617 10.5027L6.33716 10.4971L6.53638 11.4971L7.07617 12.4971V21.5027H5.07617V10.5027Z" fill="white"/>
<path fill-rule="evenodd" clip-rule="evenodd" d="M17.1105 8.99623C17.1299 12.586 14.2354 15.5142 10.6456 15.5364C7.05586 15.5586 4.13011 12.6665 4.1108 9.07672C4.09148 5.48692 6.98592 2.5588 10.5757 2.53657C14.1655 2.51434 17.0912 5.40643 17.1105 8.99623ZM10.635 13.5523C13.129 13.5369 15.1399 11.5026 15.1265 9.00858C15.1131 6.51459 13.0804 4.50533 10.5864 4.52078C8.09247 4.53622 6.08158 6.57052 6.095 9.06451C6.10841 11.5585 8.14106 13.5678 10.635 13.5523Z" fill="black"/>
<path fill-rule="evenodd" clip-rule="evenodd" d="M17.1105 8.99647C17.1299 12.5863 14.2354 15.5144 10.6456 15.5366C7.05586 15.5589 4.13011 12.6668 4.1108 9.07696C4.09148 5.48717 6.98592 2.55904 10.5757 2.53681C14.1655 2.51458 17.0912 5.40667 17.1105 8.99647ZM10.635 13.5526C13.129 13.5371 15.1399 11.5028 15.1265 9.00883C15.1131 6.51484 13.0804 4.50558 10.5864 4.52102C8.09247 4.53646 6.08158 6.57076 6.095 9.06475C6.10841 11.5587 8.14106 13.568 10.635 13.5526Z" fill="white"/>
<path d="M3.86963 7.02124L7.72404 7.43848L7.8695 12.4823L3.8695 12.4823L3.86963 7.02124Z" fill="#051923"/>
<path d="M6.06689 10.4971L2.56689 6.49707L9.56689 6.49707L6.06689 10.4971Z" fill="white"/>
</svg>
