<svg width="24" height="24" viewBox="0 0 24 24" fill="none" xmlns="http://www.w3.org/2000/svg">
<path d="M8.02247 7.51207L7.05816 9.0188L6.09402 7.51233L6.93988 7.53013L6.93988 7.53015L6.94108 7.53013L8.02247 7.51207Z" fill="white" stroke="white" stroke-width="0.0639613"/>
<path d="M7.26318 19.1836L7.21069 10.0968" stroke="white" stroke-width="1.1513"/>
<path fill-rule="evenodd" clip-rule="evenodd" d="M11.8375 12.7535C14.2042 12.7399 16.1117 10.8102 16.0981 8.44344C16.0844 6.07671 14.1547 4.16919 11.788 4.18286C9.74836 4.19464 8.04979 5.6294 7.62796 7.54055L6.45364 7.54733C6.88897 4.99598 9.10345 3.04704 11.7813 3.03158C14.7839 3.01423 17.232 5.43423 17.2493 8.43679C17.2667 11.4393 14.8467 13.8875 11.8441 13.9048C9.66047 13.9174 7.77007 12.6409 6.89467 10.7887L6.89326 10.545L6.8293 10.5454L6.82988 10.6463C6.75112 10.4664 6.68181 10.2813 6.62259 10.0918L7.84268 10.0847C8.48414 11.6587 10.0339 12.7639 11.8375 12.7535Z" fill="white"/>
<path d="M16 17.2C16 17.0895 16.0895 17 16.2 17H17.8C17.9105 17 18 17.0895 18 17.2V18.8C18 18.9105 17.9105 19 17.8 19H16.2C16.0895 19 16 18.9105 16 18.8V17.2Z" fill="#00A6ED"/>
</svg>
