<svg width="17" height="16" viewBox="0 0 17 16" fill="none" xmlns="http://www.w3.org/2000/svg">
<path d="M12.3365 0L11.9762 0.336816L4.28767 7.52277L4.03712 7.77592L4.1624 8.13001C4.1624 8.13001 4.72614 9.74932 3.64525 10.9131V10.9303L3.62972 10.9465L3.55154 11.048L3.4889 11.1155L1.5 13.2071L4.19346 14L5.22725 12.8865L5.3365 12.7855L5.35203 12.7688H5.36806C6.44846 11.6045 7.95179 12.2117 7.95179 12.2117L8.28051 12.3467L8.51553 12.0768L15.1868 3.79512L15.5 3.40702L12.3365 0ZM12.2739 1.48437L14.1219 3.4745L9.73724 8.9062L7.23169 6.20735L12.2739 1.48437ZM6.47953 6.91499L9.07928 9.71531L8.10813 10.9298L5.35203 7.96106L6.47953 6.91499ZM5.28989 9.41196L6.76165 10.9978C6.13927 11.0226 5.3856 11.2337 4.67904 11.9759C4.66902 11.9867 4.65749 11.9823 4.64747 11.9926L4.52219 12.1108L4.2561 11.8242L4.36585 11.6892L4.38138 11.6552C5.07041 10.8942 5.26634 10.0824 5.28989 9.41196V9.41196Z" fill="white"/>
<rect x="0.5" y="15" width="16" height="1" fill="white"/>
</svg>
