<svg width="24" height="24" viewBox="0 0 24 24" fill="none" xmlns="http://www.w3.org/2000/svg">
<path d="M15.8365 4L15.4762 4.33682L7.78767 11.5228L7.53712 11.7759L7.6624 12.13C7.6624 12.13 8.22614 13.7493 7.14525 14.9131V14.9303L7.12972 14.9465L7.05154 15.048L6.9889 15.1155L5 17.2071L7.69346 18L8.72725 16.8865L8.8365 16.7855L8.85203 16.7688H8.86806C9.94846 15.6045 11.4518 16.2117 11.4518 16.2117L11.7805 16.3467L12.0155 16.0768L18.6868 7.79512L19 7.40702L15.8365 4ZM15.7739 5.48437L17.6219 7.4745L13.2372 12.9062L10.7317 10.2073L15.7739 5.48437ZM9.97953 10.915L12.5793 13.7153L11.6081 14.9298L8.85203 11.9611L9.97953 10.915ZM8.78989 13.412L10.2617 14.9978C9.63927 15.0226 8.8856 15.2337 8.17904 15.9759C8.16902 15.9867 8.15749 15.9823 8.14747 15.9926L8.02219 16.1108L7.7561 15.8242L7.86585 15.6892L7.88138 15.6552C8.57041 14.8942 8.76634 14.0824 8.78989 13.412Z" fill="white" fill-opacity="0.7"/>
<rect x="4" y="19" width="16" height="1" fill="white" fill-opacity="0.7"/>
</svg>
