<svg width="18" height="18" viewBox="0 0 18 18" fill="none" xmlns="http://www.w3.org/2000/svg">
<path d="M3.77695 3.82812L15.8496 9.29391C14.6181 9.86594 11.396 11.3526 11.396 11.3526C11.396 11.3526 9.89003 14.5292 9.31025 15.744L3.77695 3.82812Z" fill="white"/>
<path fill-rule="evenodd" clip-rule="evenodd" d="M1 0H5.73459V1H1V5.65414H0V1V0H1ZM0 12.1055H1V17H5.73459V18H1H0V17V12.1055ZM12.1859 18H17H18V17V12.1055H17V17H12.1859V18ZM17 5.65414V1H12.1859V0H17H18V1V5.65414H17Z" fill="white"/>
</svg>
